<?xml version="1.0" standalone="no"?><!DOCTYPE svg PUBLIC "-//W3C//DTD SVG 1.1//EN" "http://www.w3.org/Graphics/SVG/1.1/DTD/svg11.dtd"><svg t="1545020150178" class="icon" style="" viewBox="0 0 1024 1024" version="1.1" xmlns="http://www.w3.org/2000/svg" p-id="4825" xmlns:xlink="http://www.w3.org/1999/xlink" width="64" height="64"><defs><style type="text/css"></style></defs><path d="M903.53 0H120.47C54.21 0 0 54.21 0 120.47v783.06C0 969.79 54.21 1024 120.47 1024h783.06c66.26 0 120.47-54.21 120.47-120.47V120.47C1024 54.21 969.79 0 903.53 0z" fill="#26A69A" p-id="4826"></path><path d="M706.1 435.411C788.6 497.713 842 598.32 842 712H182c0-113.681 53.4-213.672 134.7-275.973l-72-74.916c-10.95-11.384-10.95-29.074 0-40.458 10.95-11.537 28.05-11.537 39 0l82.05 84.453C409.7 382.34 459.2 369.11 512 369.11c52.2 0 101.7 13.23 145.2 35.996l81.45-84.453c10.95-11.537 28.05-11.537 39 0 10.95 11.384 10.95 29.074 0 40.458z m-60 167.676c17.1 0 30.9-13.998 30.9-31.381 0-17.23-13.8-31.228-30.9-31.228-17.1 0-30.9 13.999-30.9 31.228 0 17.383 13.8 31.381 30.9 31.381z m-268.2 0c17.1 0 31.05-13.998 31.05-31.381 0-17.23-13.95-31.228-31.05-31.228S347 554.477 347 571.706c0 17.383 13.8 31.381 30.9 31.381z" fill="#FFFFFF" p-id="4827"></path></svg>