<?xml version="1.0" encoding="utf-8"?>
<!-- Generator: Adobe Illustrator 22.1.0, SVG Export Plug-In . SVG Version: 6.00 Build 0)  -->
<svg version="1.1" id="图层_1" xmlns="http://www.w3.org/2000/svg" xmlns:xlink="http://www.w3.org/1999/xlink" x="0px" y="0px" xml:space="preserve" viewBox="0 0 64 64">
<style type="text/css">
	.st0{fill:#D73736;}
</style>
<path class="st0" d="M30,28.3c-0.8,2.6-2,5.4-3.5,8.4c-0.7,1.3-1.5,2.6-1.8,3.6l0.4-0.1c4.4-1.7,8.6-2.7,11.7-3.3
	c-0.5-0.4-1-0.7-1.4-1.1C33.3,34,31.4,31.4,30,28.3 M52.7,41.6c-0.6,0.7-1.6,1-3.2,1c-2.7,0-7-0.8-10.5-2.6
	c-6,0.7-10.5,1.5-14.1,2.6c-0.2,0.1-0.4,0.1-0.6,0.2c-4.3,7.4-7.6,10.7-10.4,10.7c-0.6,0-1.1-0.1-1.5-0.4l-1.7-1.1l-0.1-0.2
	c-0.2-0.6-0.3-1.3-0.2-1.9c0.4-1.9,2.4-4.8,6.6-7.4c0.7-0.5,1.7-1,3.1-1.7c1-1.8,2.2-4,3.4-6.3c1.8-3.6,2.9-7.2,3.8-10.3v0
	c-1.3-4.2-2.1-6.8-0.8-11.4c0.3-1.3,1.5-2.7,2.8-2.7H30c0.8,0,1.6,0.3,2.1,0.8c2.3,2.3,1.2,7.9,0.1,12.6c-0.1,0.2-0.1,0.4-0.1,0.5
	c1.4,4,3.4,7.1,5.6,9c0.9,0.7,1.9,1.4,3,2c1.6-0.2,3.1-0.2,4.5-0.2c4.3,0,7,0.8,8,2.4c0.3,0.6,0.5,1.2,0.4,1.9
	C53.6,40.2,53.3,41,52.7,41.6 M56.5,0.5h-49c-3.9,0-7,3.1-7,7v49c0,3.9,3.1,7,7,7h49c3.9,0,7-3.1,7-7v-49
	C63.5,3.6,60.4,0.5,56.5,0.5 M51.3,39.1c-0.4-0.3-1.8-1.2-6.7-1.2c-0.2,0-0.5,0-0.8,0.4c2.6,1.1,5,1.8,6.6,1.8c0.2,0,0.5,0,0.7-0.1
	h0.1c0.2-0.1,0.3-0.1,0.3-0.5C51.5,39.4,51.4,39.3,51.3,39.1 M19.2,44.3c-0.7,0.4-1.3,0.8-1.7,1.1c-2.5,2.3-4.1,4.6-4.2,5.9
	C14.8,50.7,16.9,48.4,19.2,44.3 M29.7,20.1l0.2-0.1c0.2-1.1,0.4-2.1,0.6-2.9l0.1-0.6c0.4-2,0.3-3-0.3-3.8l-0.5-0.2
	c-0.1,0.1-0.2,0.3-0.2,0.4C28.9,14.4,28.9,16.9,29.7,20.1z"/>
</svg>
