<?xml version="1.0" standalone="no"?><!DOCTYPE svg PUBLIC "-//W3C//DTD SVG 1.1//EN" "http://www.w3.org/Graphics/SVG/1.1/DTD/svg11.dtd"><svg t="1545034172402" class="icon" style="" viewBox="0 0 1024 1024" version="1.1" xmlns="http://www.w3.org/2000/svg" p-id="8807" xmlns:xlink="http://www.w3.org/1999/xlink" width="128" height="128"><defs><style type="text/css"></style></defs><path d="M0 0m128 0l768 0q128 0 128 128l0 768q0 128-128 128l-768 0q-128 0-128-128l0-768q0-128 128-128Z" fill="#D7E6EF" p-id="8808"></path><path d="M119.36 0h785.28A119.36 119.36 0 0 1 1024 119.36V320H0V119.36A119.36 119.36 0 0 1 119.36 0z" fill="#F3796E" p-id="8809"></path><path d="M904.64 1024H119.36A119.36 119.36 0 0 1 0 904.64V704h1024v200.64A119.36 119.36 0 0 1 904.64 1024z" fill="#4EC79E" p-id="8810"></path><path d="M1024 672H0V352h1024z" fill="#5BAEF6" p-id="8811"></path><path d="M608 0h192v1024h-192z" fill="#FFC54B" p-id="8812"></path></svg>