<?xml version="1.0" encoding="utf-8"?>
<!-- Generator: Adobe Illustrator 22.1.0, SVG Export Plug-In . SVG Version: 6.00 Build 0)  -->
<svg version="1.1" id="图层_1" xmlns="http://www.w3.org/2000/svg" xmlns:xlink="http://www.w3.org/1999/xlink" x="0px" y="0px"
	 viewBox="0 0 128 128" style="enable-background:new 0 0 128 128;" xml:space="preserve">
<style type="text/css">
	.st0{fill:#B9BABA;}
	.st1{fill:#FFFFFF;}
</style>
<path class="st0" d="M12.8,0h102.4c7,0,12.8,5.8,12.8,12.8v102.4c0,7-5.8,12.8-12.8,12.8H12.8c-7,0-12.8-5.8-12.8-12.8V12.8
	C0,5.8,5.8,0,12.8,0z"/>
<path class="st1" d="M66.6,44.8H22.1c-1.9,0-3.2-1.3-3.2-3.2s1.3-3.2,3.2-3.2h44.5c1.9,0,3.2,1.3,3.2,3.2S68.5,44.8,66.6,44.8z
	 M105.9,72H22.1c-1.9,0-3.2-1.3-3.2-3.2s1.3-3.2,3.2-3.2h84.2c1.9,0,3.2,1.3,3.2,3.2S107.8,72,105.9,72z M105.9,99.2H22.1
	c-1.9,0-3.2-1.3-3.2-3.2s1.3-3.2,3.2-3.2h84.2c1.9,0,3.2,1.3,3.2,3.2S107.8,99.2,105.9,99.2z"/>
</svg>
