<?xml version="1.0" encoding="utf-8"?>
<!-- Generator: Adobe Illustrator 22.1.0, SVG Export Plug-In . SVG Version: 6.00 Build 0)  -->
<svg version="1.1" id="图层_1" xmlns="http://www.w3.org/2000/svg" xmlns:xlink="http://www.w3.org/1999/xlink" x="0px" y="0px"
	 viewBox="0 0 54 54" style="enable-background:new 0 0 54 54;" xml:space="preserve">
<style type="text/css">
	.st0{fill:#DBDAD8;}
	.st1{fill:#F3F2F0;}
	.st2{fill:#EE87B4;stroke:#EE87B4;stroke-width:2;stroke-miterlimit:10;}
</style>
<g>
	<path class="st0" d="M4.5,0h45C52,0,54,1.7,54,3.9v46.3c0,2.1-2,3.9-4.5,3.9h-45C2,54,0,52.3,0,50.1V3.9C0,1.7,2,0,4.5,0z"/>
	<path class="st1" d="M4.5,0.2h45C52,0.2,54,1.7,54,3.7v42.5c0,2-2,3.5-4.5,3.5h-45C2,49.8,0,48.2,0,46.2V3.7C0,1.7,2,0.2,4.5,0.2z"
		/>
	<g>
		<path class="st2" d="M17.8,9.1v0.2c0,0.5,0.5,0.9,1.5,1.4c0.4,0.2,0.7,0.2,0.9,0.2c1.4,2.1,0.7,3.5-2.1,4.1
			c-2.4-0.1-3.7-1.2-4.1-3.2c0.6-5.1,5-7.9,13.3-8.4c8.1,0.3,12.3,2.9,12.7,7.9c0,2.3-1.3,4.5-3.8,6.6c-0.6,0.5-1.4,1.1-2.4,2
			c-3,2.3-4.7,4.3-5.3,6.1c-0.8,2-1.2,4.5-1.2,7.7h-0.9c-0.2-1.4-0.4-2.8-0.6-4.3c-0.2-1.4-0.2-2.6,0-3.6c0-1.5,1-3.3,3-5.4
			c0.2-0.1,0.4-0.4,0.6-0.7c6.5-5.9,8-10.3,4.4-13.1C32,5.6,29.7,5,26.7,4.8C22.8,5,19.8,6.4,17.8,9.1z M26.7,40.4
			c2.4,0.2,3.6,1.2,3.8,3.2c-0.2,2-1.5,2.9-3.8,2.9c-2.6,0-3.9-1-4.1-2.9C22.8,41.6,24.1,40.5,26.7,40.4z"/>
	</g>
</g>
</svg>
