<?xml version="1.0" encoding="utf-8"?>
<!-- Generator: Adobe Illustrator 23.0.1, SVG Export Plug-In . SVG Version: 6.00 Build 0)  -->
<svg version="1.1" id="图层_1" xmlns="http://www.w3.org/2000/svg" xmlns:xlink="http://www.w3.org/1999/xlink" x="0px" y="0px"
	 viewBox="0 0 624.2 780.2" style="enable-background:new 0 0 624.2 780.2;" xml:space="preserve">
<style type="text/css">
	.st0{fill:#EBECF0;}
	.st1{fill:#C1C7D0;}
	.st2{fill:#999999;}
	.st3{fill:#FFA726;}
</style>
<g>
	<path class="st0" d="M624.2,741.2c0,10.3-4.1,20.3-11.4,27.6c-7.3,7.3-17.2,11.4-27.6,11.4H39c-10.3,0-20.3-4.1-27.6-11.4
		C4.1,761.5,0,751.5,0,741.2V39c0-10.4,4.1-20.3,11.4-27.6C18.8,4.1,28.7,0,39,0h334.7c10.4-0.1,20.3,4,27.7,11.3l211.4,211
		c7.3,7.4,11.4,17.3,11.3,27.7L624.2,741.2L624.2,741.2z"/>
	<path class="st1" d="M624.2,741.2"/>
	<path class="st2" d="M284,527.8h57.3v57.3H284V527.8z M312.1,234.1c-63.1,0-114.3,51.2-114.3,114.3h57.3
		c2.5-29.7,27.3-52.6,57.2-52.6s54.7,22.9,57.2,52.6c0,57.3-85.4,50.3-85.4,143.2h57c0-64.4,85.4-71.4,85.4-143.2
		C426.4,285.2,375.2,234.1,312.1,234.1L312.1,234.1z"/>
	<path class="st3" d="M624.2,250.1v5.5h-211c-10.3,0-20.3-4.1-27.6-11.4c-7.3-7.3-11.4-17.2-11.4-27.6V0c10.4-0.1,20.3,4,27.7,11.3
		l211.4,211C620.4,229.8,624.3,239.8,624.2,250.1L624.2,250.1z"/>
</g>
</svg>
