<?xml version="1.0" standalone="no"?><!DOCTYPE svg PUBLIC "-//W3C//DTD SVG 1.1//EN" "http://www.w3.org/Graphics/SVG/1.1/DTD/svg11.dtd"><svg t="1545111906167" class="icon" style="" viewBox="0 0 1024 1024" version="1.1" xmlns="http://www.w3.org/2000/svg" p-id="5291" xmlns:xlink="http://www.w3.org/1999/xlink" width="64" height="64"><defs><style type="text/css"></style></defs><path d="M845.2 65.1H174.3c-61.5 0-111.8 50.3-111.8 111.8v670.9c0 61.5 50.3 111.8 111.8 111.8h670.9c61.5 0 111.8-50.3 111.8-111.8V176.9c0-61.5-50.3-111.8-111.8-111.8z m-601 796.6h-55.9V749.9h55.9v111.8z m0-195.6h-55.9V554.2h55.9v111.9z m0-195.7h-55.9V358.6h55.9v111.8z m0-195.7h-55.9V162.9h55.9v111.8zM624 531.9L483.7 647.4c-16.6 13.6-41.6 1.9-41.6-19.6V396.9c0-21.5 25-33.3 41.6-19.6L624 492.7c12.3 10.2 12.3 29.1 0 39.2z m207.2 329.8h-55.9V749.9h55.9v111.8z m0-195.6h-55.9V554.2h55.9v111.9z m0-195.7h-55.9V358.6h55.9v111.8z m0-195.7h-55.9V162.9h55.9v111.8z" fill="#8C73CE" p-id="5292"></path></svg>