<?xml version="1.0" standalone="no"?><!DOCTYPE svg PUBLIC "-//W3C//DTD SVG 1.1//EN" "http://www.w3.org/Graphics/SVG/1.1/DTD/svg11.dtd"><svg t="1545032995481" class="icon" style="" viewBox="0 0 1024 1024" version="1.1" xmlns="http://www.w3.org/2000/svg" p-id="2901" xmlns:xlink="http://www.w3.org/1999/xlink" width="128" height="128"><defs><style type="text/css"></style></defs><path d="M358.4 612.2496v-58.197333H238.933333V819.2h238.933334v-206.9504H358.4zM68.266667 0h614.4l273.066666 282.487467V1024H68.266667V0z m170.666666 204.8v64.682667h119.466667V204.8H238.933333z m0 116.394667v64.682666h119.466667V321.2288H238.933333z m119.466667-58.197334V327.68H477.866667V262.997333H358.4z m0 116.394667v64.7168H477.866667v-64.682667H358.4zM238.933333 437.6576v64.682667h119.466667V437.589333H238.933333z m119.466667 58.197333v64.682667H477.866667v-64.682667H358.4z m-92.910933 174.626134h185.821866v90.555733H265.489067v-90.555733z" fill="#FF9F51" p-id="2902"></path><path d="M682.666667 0l273.066666 273.066667h-273.066666z" fill="#D97B2D" p-id="2903"></path></svg>